<?xml version="1.0" encoding="utf-8"?>
<!-- Generator: Adobe Illustrator 15.0.2, SVG Export Plug-In . SVG Version: 6.00 Build 0)  -->
<!DOCTYPE svg PUBLIC "-//W3C//DTD SVG 1.1//EN" "http://www.w3.org/Graphics/SVG/1.1/DTD/svg11.dtd">
<svg version="1.1" id="Шар_1" xmlns="http://www.w3.org/2000/svg" xmlns:xlink="http://www.w3.org/1999/xlink" x="0px" y="0px"
	 width="20px" height="20px" viewBox="0 0 20 20" enable-background="new 0 0 20 20" xml:space="preserve">
<g id="WordCloud">
	<path id="Фігура-21-копія" fill="#FFFFFF" d="M15.063,16c-0.582,0-4.354,0-10,0c-2.191,0-3.968-1.777-3.968-3.969
		c0-1.858,1.282-3.406,3.006-3.838C4.705,5.23,7.326,3,10.469,3c3.253,0,5.923,2.397,6.401,5.517
		c1.278,0.659,2.161,1.977,2.161,3.514C19.031,14.223,17.254,16,15.063,16z M15.904,9.182c-0.168-2.868-2.525-5.149-5.435-5.149
		c-2.865,0-5.189,2.211-5.422,5.016c-1.641,0.008-2.969,1.339-2.969,2.982c0,1.648,1.336,2.984,2.984,2.984c-0.039,0,9.719,0,10,0
		c1.648,0,2.984-1.336,2.984-2.984C18.047,10.678,17.139,9.547,15.904,9.182z"/>
	<path id="Фігура-23" fill="#4B7CAD" d="M12.061,12.049h0.025l0.785-4.021h1.225l-1.383,5.926h-1.104l-1.09-3.903h-0.025
		l-1.087,3.903H8.304L6.92,8.028h1.226l0.789,4.017H8.96l1.066-4.017h0.96L12.061,12.049z"/>
</g>
</svg>
